<?xml version="1.0" encoding="UTF-8"?>
<svg id="Layer_1" data-name="Layer 1" xmlns="http://www.w3.org/2000/svg" viewBox="0 0 1080 1080">
  <path d="M907.09,169.31c13.36,13.31,27.95,24.27,39.8,38.95,22.5,27.89,43.64,48.12,62.07,80.93,89.6,159.53,85.58,372.4-22,523.56-111.36,156.47-284,267.43-482.91,249.26-116.62-10.66-216.4-41.34-308.25-115.71-72.73-58.89-157.12-191.89-177.12-283.26-6.55-29.93-9.22-77.74-10.5-108.87C.14,357.9,114.19,180.52,281.42,85.1c26.47-15.1,61.73-33.48,90.87-41.78,45.02-12.83,85.25-25.47,132.98-26.95,109.27-3.38,223.36,19.56,317.16,78.29,7.15,4.47,40.19,26.21,43.8,30.33,13.26,15.14,26.52,30.04,40.86,44.32ZM626.89,80.24l-39.64-6.61c-26.75-1.91-53.67-3.55-80.6-1.29-18.46,1.54-38,7.36-56.6,9.09,4.6,16.74,7.82,33.97,12.34,50.73,24.1,89.21,48.7,177.42,64.06,268.87,1.95,11.62,3.46,23.66,4.24,35.43,2.27.3,1.22-2.95,1.29-4.53.35-8.42.22-17.62.05-26.08-1.9-94.65,1.65-189.46,1.19-284.81l3.95-44.82h10.42c2.39,84.69,2.61,169.15,2.67,254.31,0,4.78-1.18,10.59-1.32,15.53l1.26,65.69,13.29-69.27c18.29-88.1,38.61-175.86,63.38-262.24ZM564.49,441.66l157.34-334.88c-.72-1.1-1.83-1.61-2.94-2.22-10.1-5.54-48.97-16.61-62.04-19.89-5.33-1.34-10.84-2.37-16.29-2.78l-1.7,1.65-74.38,358.12ZM437.04,85.34c-1.05-1.08-26.68,2.43-29.98,3.15-4.06.89-7.8,3.86-11.88,5.03-15.46,4.44-31.71,7.7-45.13,17.14,8.89,16.26,17.52,32.67,26.37,48.95,27.93,51.38,55.82,103.24,79.47,157.22l65.68,156.04c-5.37-29.49-9.88-59.07-16.23-88.44-18.85-87.14-44.61-172.76-62.15-260.35-2.51-12.52-4.14-26.04-6.15-38.74ZM735.63,243.45c15.03-19.62,30.53-39.39,46.09-58.6,3.85-4.76,29.18-32.09,28.48-35.01-23.75-16.09-48.95-30.45-76.09-39.74l-2.48,1.21c-16.96,38.97-31.8,78.9-48.55,117.95-28.91,67.38-59.35,133.61-92.4,198.91-4.77,9.43-9.9,19.1-13.15,29.1,26.85-36.13,54.39-71.86,81.13-108.08,25.85-35.02,50.53-71.2,76.98-105.74ZM505.97,478.08l-115.5-254.49c-18.44-32.09-31.22-70.87-49.63-102.53-.9-1.55-2.11-4.55-4.33-4.37-9.94,7.12-22.84,10.59-33.01,16.5-7.78,4.52-21.66,13.8-28.9,19.22-1.58,1.19-8.22,6.08-7.88,7.6l239.24,318.06ZM831.97,165.1l-11.28-7.63c-14.89,25.26-34.21,47.3-51.24,71.03-53.03,73.88-106.17,148.29-162.79,219.56-8.87,11.17-18.28,22.05-27.86,32.6.99.9,9.06-5.98,10.42-7.12,28.28-23.79,55.58-51.87,83.2-76.77,66.23-59.71,133.15-119.59,201.58-176.87,2.58-2.16,5.86-4.93,9.12-5.86-11.87-17.31-29.8-28.78-45.53-42.23-2.46-2.1-3.96-5.28-5.63-6.72ZM481.26,474.18c.88-.97-7.81-11.93-9.13-13.62-54.67-69.88-107.79-140.39-159.16-212.79-15.82-22.31-30.02-45.9-47.05-67.4-3.33-4.21-8.48-7.43-9.67-13.11-3.82-2.75-49.99,42.27-56.59,46.77l-9.62,14.27c16,11.26,29.65,25.42,44.81,37.77,77.67,63.3,151.99,130.99,230.13,193.84,5.47,4.4,10.64,10.01,16.28,14.27ZM908.76,237.85c-.78-.99-3.43-1.86-4.87-3.56-1.57-1.87-8.41-10.86-9.69-10.87-3.93,2.88-7.89,5.84-11.69,8.89-33.28,26.74-64.69,62.82-96.9,91.67-45.23,40.5-93.42,78.22-139.16,118.35l-58.54,51.34,37.1-20.76c89.74-59.55,183.87-112.09,278.95-161.92,12.7-6.66,25.27-13.74,37.73-20.85,2.54-2.6-4.83-14.91-6.77-17.96-6.06-9.56-13.8-13.68-19.82-21.8-3.09-4.16-4.36-10.01-6.35-12.52ZM236.33,286.06c-18.74-16.54-37.81-33.13-57.38-48.57-7.74,7.99-13.3,17.7-20.22,26.28-3.4,4.22-8.85,8.46-12.26,12.82-2.05,2.63-18.72,25.99-17.64,27.22,5.69.82,11.82,3.33,16.97,5.81,84.8,40.86,164.62,95.1,247.46,140.09l82.81,43.98c-53.4-41.23-105.23-84.97-155.43-129.98-28.38-25.45-55.74-52.41-84.31-77.64ZM951.95,303.88c-1.21-.86-23.54,11.02-26.77,12.71-75.24,39.44-147.85,85.7-220.32,129.52l-83.12,48.86c30.38-9.3,59.77-21.47,89.79-31.79,73.4-25.25,147.57-50.4,222.31-71.61,6.49-1.84,52.97-12.29,53.22-15.56-10.73-24.61-20.25-49.61-35.11-72.13ZM438.35,492.4L123.98,313.15l-2.85-.14c-1.57,7.22-9.35,13.48-12.34,19.54s-4.96,15.23-7.96,21.95c-2.17,4.85-18.07,37.17-16.22,39.05,90.41,16.02,176.09,49.21,263.74,75.06,28.56,8.42,58.06,14.15,86.1,24.45l3.9-.65ZM991.06,388.35l-378.42,127.43c21.84-2.94,43.77-6.64,65.68-9.08,94.66-10.53,189.82-20.87,284.79-28.63,15.49-1.27,30.77-4.47,46.65-2.74l1.58-2.5c-3.21-17.93-4.22-38.46-9.15-55.93-2.69-9.53-8.97-18.78-11.13-28.55ZM447.45,515.81c-20.07-4.09-39.9-9.49-59.54-15.24-97.8-28.65-194.11-66.64-292.61-92.34-4.53-1.18-9.09-2.51-13.76-3.08-1.23.25-2.65,6.23-3.06,7.63-4.73,15.99-9.74,45.56-11.67,62.43-.39,3.39-1.18,10.33-1.15,13.23.05,5.06,6.69,1.48,9.21,1.6,107.9,5.33,219.04,10.56,326.41,21.87,13.85,1.46,27.62,4.39,41.59,5.24,1.42.09,4.93.83,4.58-1.34ZM1013.18,579.52c-1.85-7.25,2.13-13.95,2.62-20.15,1.75-22.33-.19-47.43-1.87-69.67l-2.69-1.21-406.4,44.23,408.35,46.81ZM446.15,532.72l-382.34-29.92c-1.42,27.68-2.93,55.72,1.37,83.15,117.73-19.73,236.17-36.41,355-48.67l25.97-4.56ZM457.86,549.59c-2.52-3.39-12.05-1.53-16.09-1.11-30.83,3.21-63.14,12.08-93.96,16.57-60.23,8.77-121.36,14.07-181.75,22.43-32.35,4.47-64.52,10.48-97.03,14.16-1.85,7.2,2.51,13.03,3.58,19.15,2.9,16.69,5.04,32.86,9.19,49.33,1.76,6.97,5.74,14.75,5.43,22.55,2.48,2.62,35.56-14.86,40.73-17.15,58.78-26.02,118.99-49.36,179.07-71.93,50.01-18.79,100.33-36.58,150.84-54ZM1010.39,592.71l-405.56-43.09c-.63,3.6.75,2.19,2.85,2.93,100.55,35.35,203.26,64.96,302.14,104.99,22.8,9.23,46.76,22.36,69.58,30.56,2.31.83,8.82,3.61,10.52,1.2,9.63-31.43,17.32-63.88,20.48-96.58ZM465.67,561.33c-98.43,39.51-197.06,78.41-296.57,115.03-20.74,7.64-42.02,14.12-62.74,21.8-5.17,1.92-9.2,5.97-15.24,4.92l4.95,16.5,41.89,77.12c3.07,2.15,53.69-40.05,59.91-44.75,69.55-52.5,140.62-102.44,211.99-152.16,18.5-12.89,38.26-24.59,55.81-38.47ZM616.53,573.03l194.71,125.85c25.75,20.08,53.16,38.14,79.8,56.75,15.59,10.89,30.74,22.34,46.65,32.74,1.41.64,1.83-.63,2.63-1.39,4.1-3.88,11.72-16.3,14.82-21.65,8.06-13.92,22.59-42.13,27.72-56.81.41-1.18,1.53-6.26,1.14-6.84-9.01-4.56-19.21-5.82-28.73-9-103.39-34.58-205.16-74.99-308.56-108.9-10.12-3.32-20.07-7.45-30.2-10.76ZM476.07,576.93l-330.32,230.81c7.71,4.9,11.03,14.68,16.43,21.36,1.61,2,5.41,4.17,6.92,5.96,12.29,14.61,24.15,29.43,38.42,42.24l268.55-300.37ZM931.2,796.76l-341.99-218.53,278.39,291.21,2.55-.52c9.17-9.76,21.56-18.26,30.54-27.98,10.99-11.89,18.98-28.14,29.87-40.36l.63-3.82ZM593.62,608.94c-6.65-7.16-11.88-15.87-20-21.62,1.76,7.37,7.22,13.73,10.65,19.9,45.72,82.35,99.66,160.01,147.75,241.1,17.09,28.81,32.57,58.66,49.84,87.36l3.66-.52c27.04-14.35,49.9-34.25,73.9-52.9v-5.96c-45.03-39.11-86.67-81.89-128.49-124.43-46.15-46.96-92.44-94.65-137.32-142.93ZM290.08,939.75l192.49-345.93-64.34,72.85c-61.7,64.65-118.62,133.38-180.08,198.33-6.75,7.13-14.76,12.9-20.84,20.79,22.94,19.6,45.07,40.94,72.78,53.96ZM388.84,985.18l115.83-388.75-63.94,108.37c-41.92,78.08-87.9,154.29-134.52,229.62-1.71,2.76-7.69,8.48-8.3,9.91-.91,2.16.86,1.76,1.65,2.22,23.92,13.9,49.72,26.91,76.03,35.82,4.26,1.44,8.62,3.53,13.25,2.81ZM481.27,1004.77c-.6-1.57-1.28-2.79-1.36-4.59-.99-22.72,3.52-47.38,5.25-70.19,6.61-87.06,14.46-173.29,26.15-259.95,2.95-21.88,7.17-43.72,8.96-65.81l-10.01,28.33c-30.27,106.4-62.31,212.69-99.17,317-3.65,10.33-13.21,27.78-14.31,37.75-.32,2.85.32,1.39,1.8,1.98,9.07,3.64,23.23,6.97,32.96,8.66,4.25.74,8.5-.2,12.52.49,12.38,2.12,24.57,6.42,37.22,6.33ZM685.47,981.38c31.35-7.22,60.72-21.37,87.1-39.67-59.61-95.71-124.82-187.58-182.06-284.8l-28.59-52.67,123.55,377.14ZM578.82,1004.79c-3.56-29.96-11.25-59.41-15.45-89.25-13.26-94.12-20.59-188.86-28.79-283.34l-2.57-11.06c-.26,4.07.35,8.26-.03,12.34-8,86.64-16.22,170.09-27.12,256.39-4.84,38.33-8.38,76.78-14.48,114.91h88.44ZM676.35,985.26c-16.98-50.36-39.33-98.81-57.25-148.87-11.98-33.47-21.83-67.75-34.13-101.12l-34.75-112.83,37.7,381.05c29.99-3.46,59.83-8.52,88.43-18.23Z"/>
</svg>