<svg xmlns="http://www.w3.org/2000/svg" version="1.1" xmlns:xlink="http://www.w3.org/1999/xlink" width="1000" height="1000" viewBox="0 0 1080 1080">
  <g transform="matrix(0.9259259259259259,0,0,0.9259259259259259,0,0)">
    <svg xmlns="http://www.w3.org/2000/svg" version="1.1" xmlns:xlink="http://www.w3.org/1999/xlink" width="1080" height="1080">
      <svg id="Layer_1" data-name="Layer 1" xmlns="http://www.w3.org/2000/svg" viewBox="0 0 1080 1080">
        <path d="M754.86,323.03c7.82,7.79,16.36,14.2,23.29,22.79,13.17,16.32,25.54,28.16,36.33,47.37,52.44,93.38,50.09,217.97-12.88,306.44-65.18,91.58-166.23,156.53-282.65,145.89-68.26-6.24-126.66-24.19-180.42-67.73-42.57-34.47-91.97-112.32-103.67-165.8-3.83-17.52-5.4-45.5-6.14-63.72-4.71-114.87,62.05-218.69,159.93-274.54,15.49-8.84,36.13-19.59,53.19-24.45,26.35-7.51,49.9-14.91,77.83-15.77,63.96-1.98,130.74,11.45,185.63,45.82,4.18,2.62,23.52,15.34,25.64,17.75,7.76,8.86,15.52,17.58,23.92,25.94ZM590.86,270.9l-23.2-3.87c-15.65-1.12-31.41-2.08-47.17-.76-10.81.9-22.24,4.31-33.13,5.32,2.69,9.8,4.58,19.89,7.23,29.69,14.11,52.22,28.51,103.85,37.5,157.37,1.14,6.8,2.02,13.85,2.48,20.74,1.33.18.72-1.73.75-2.65.2-4.93.13-10.31.03-15.26-1.11-55.4.97-110.89.7-166.7l2.31-26.23h6.1c1.4,49.57,1.53,99,1.56,148.85,0,2.8-.69,6.2-.77,9.09l.74,38.45,7.78-40.54c10.71-51.57,22.6-102.93,37.1-153.49ZM554.33,482.44l92.09-196.01c-.42-.65-1.07-.94-1.72-1.3-5.91-3.24-28.66-9.72-36.31-11.64-3.12-.78-6.35-1.38-9.54-1.63l-.99.97-43.53,209.61ZM479.74,273.89c-.61-.63-15.62,1.42-17.54,1.85-2.38.52-4.57,2.26-6.95,2.94-9.05,2.6-18.56,4.51-26.41,10.03,5.2,9.52,10.25,19.12,15.43,28.65,16.35,30.07,32.67,60.43,46.51,92.02l38.44,91.33c-3.15-17.26-5.78-34.58-9.5-51.77-11.03-51-26.11-101.12-36.38-152.38-1.47-7.33-2.42-15.24-3.6-22.67ZM654.51,366.43c8.79-11.49,17.87-23.05,26.98-34.3,2.26-2.78,17.08-18.78,16.67-20.49-13.9-9.42-28.65-17.82-44.54-23.26l-1.45.71c-9.93,22.81-18.61,46.18-28.42,69.04-16.92,39.44-34.74,78.2-54.08,116.42-2.79,5.52-5.8,11.18-7.7,17.03,15.72-21.15,31.83-42.06,47.48-63.26,15.13-20.5,29.58-41.67,45.06-61.89ZM520.08,503.76l-67.6-148.95c-10.79-18.79-18.28-41.48-29.05-60.01-.53-.91-1.24-2.66-2.54-2.56-5.82,4.17-13.37,6.2-19.32,9.66-4.56,2.65-12.68,8.08-16.91,11.25-.93.69-4.81,3.56-4.61,4.45l140.03,186.16ZM710.89,320.57l-6.6-4.47c-8.72,14.79-20.02,27.69-29.99,41.57-31.04,43.25-62.14,86.79-95.28,128.51-5.19,6.54-10.7,12.91-16.3,19.08.58.53,5.31-3.5,6.1-4.17,16.55-13.93,32.53-30.36,48.69-44.93,38.76-34.95,77.93-69.99,117.99-103.52,1.51-1.27,3.43-2.88,5.34-3.43-6.95-10.13-17.44-16.85-26.65-24.72-1.44-1.23-2.32-3.09-3.3-3.94ZM505.62,501.47c.51-.57-4.57-6.98-5.34-7.97-32-40.9-63.09-82.17-93.16-124.55-9.26-13.06-17.57-26.87-27.54-39.45-1.95-2.46-4.96-4.35-5.66-7.67-2.23-1.61-29.26,24.74-33.12,27.37l-5.63,8.35c9.36,6.59,17.36,14.88,26.23,22.11,45.46,37.05,88.96,76.67,134.69,113.46,3.2,2.58,6.23,5.86,9.53,8.35ZM755.84,363.15c-.46-.58-2.01-1.09-2.85-2.08-.92-1.09-4.92-6.36-5.67-6.36-2.3,1.69-4.62,3.42-6.84,5.2-19.48,15.65-37.86,36.77-56.72,53.66-26.47,23.71-54.68,45.78-81.45,69.27l-34.26,30.05,21.72-12.15c52.53-34.85,107.62-65.61,163.27-94.77,7.43-3.9,14.79-8.04,22.08-12.21,1.48-1.52-2.83-8.73-3.96-10.51-3.55-5.6-8.08-8.01-11.6-12.76-1.81-2.44-2.55-5.86-3.72-7.33ZM362.26,391.36c-10.97-9.68-22.13-19.39-33.58-28.43-4.53,4.68-7.79,10.36-11.83,15.38-1.99,2.47-5.18,4.95-7.17,7.51-1.2,1.54-10.96,15.21-10.33,15.93,3.33.48,6.92,1.95,9.93,3.4,49.63,23.91,96.36,55.66,144.84,81.99l48.47,25.74c-31.25-24.13-61.59-49.73-90.98-76.08-16.61-14.89-32.62-30.68-49.35-45.44ZM781.12,401.8c-.71-.5-13.78,6.45-15.67,7.44-44.04,23.08-86.54,50.16-128.96,75.81l-48.65,28.6c17.78-5.44,34.98-12.56,52.55-18.61,42.96-14.78,86.37-29.5,130.12-41.91,3.8-1.08,31-7.19,31.15-9.11-6.28-14.41-11.85-29.04-20.55-42.22ZM480.5,512.14l-184-104.92-1.67-.08c-.92,4.22-5.47,7.89-7.22,11.43s-2.9,8.92-4.66,12.85c-1.27,2.84-10.57,21.76-9.49,22.86,52.92,9.38,103.07,28.8,154.37,43.93,16.72,4.93,33.98,8.28,50.4,14.31l2.28-.38ZM804.01,451.24l-221.5,74.59c12.78-1.72,25.62-3.89,38.44-5.31,55.41-6.17,111.11-12.22,166.69-16.76,9.07-.74,18.01-2.62,27.31-1.6l.93-1.46c-1.88-10.49-2.47-22.51-5.36-32.74-1.58-5.58-5.25-10.99-6.51-16.71ZM485.83,525.84c-11.75-2.39-23.35-5.56-34.85-8.92-57.25-16.77-113.61-39.01-171.27-54.05-2.65-.69-5.32-1.47-8.06-1.8-.72.14-1.55,3.65-1.79,4.47-2.77,9.36-5.7,26.67-6.83,36.54-.23,1.98-.69,6.05-.67,7.75.03,2.96,3.91.87,5.39.94,63.15,3.12,128.21,6.18,191.05,12.8,8.11.85,16.17,2.57,24.34,3.07.83.05,2.89.49,2.68-.78ZM816.95,563.13c-1.08-4.25,1.25-8.17,1.53-11.79,1.03-13.07-.11-27.76-1.1-40.78l-1.57-.71-237.87,25.89,239.01,27.4ZM485.07,535.74l-223.78-17.51c-.83,16.2-1.71,32.62.8,48.67,68.91-11.55,138.23-21.31,207.78-28.48l15.2-2.67ZM491.92,545.61c-1.47-1.98-7.06-.9-9.42-.65-18.05,1.88-36.95,7.07-55,9.7-35.25,5.14-71.03,8.24-106.38,13.13-18.94,2.62-37.77,6.13-56.79,8.29-1.09,4.21,1.47,7.62,2.09,11.21,1.69,9.77,2.95,19.24,5.38,28.87,1.03,4.08,3.36,8.63,3.18,13.2,1.45,1.53,20.82-8.7,23.84-10.04,34.4-15.23,69.64-28.89,104.81-42.1,29.27-11,58.73-21.41,88.29-31.61ZM815.33,570.85l-237.38-25.22c-.37,2.11.44,1.28,1.67,1.72,58.86,20.69,118.97,38.02,176.84,61.45,13.35,5.4,27.37,13.09,40.73,17.89,1.35.49,5.16,2.11,6.16.7,5.64-18.4,10.14-37.39,11.98-56.53ZM496.49,552.48c-57.61,23.13-115.34,45.89-173.58,67.33-12.14,4.47-24.6,8.26-36.72,12.76-3.02,1.12-5.39,3.49-8.92,2.88l2.89,9.66,24.52,45.14c1.8,1.26,31.43-23.44,35.07-26.19,40.71-30.73,82.31-59.96,124.08-89.06,10.83-7.55,22.4-14.39,32.66-22.52ZM584.79,559.33l113.97,73.66c15.07,11.75,31.11,22.33,46.71,33.22,9.12,6.37,17.99,13.07,27.31,19.17.82.38,1.07-.37,1.54-.81,2.4-2.27,6.86-9.54,8.68-12.67,4.72-8.15,13.22-24.66,16.23-33.25.24-.69.9-3.67.67-4-5.27-2.67-11.25-3.41-16.81-5.27-60.51-20.24-120.08-43.89-180.6-63.74-5.92-1.94-11.75-4.36-17.67-6.3ZM502.58,561.62l-193.34,135.09c4.51,2.87,6.46,8.59,9.61,12.5.94,1.17,3.17,2.44,4.05,3.49,7.19,8.55,14.13,17.23,22.49,24.72l157.19-175.81ZM768.98,690.29l-200.17-127.91,162.95,170.45,1.49-.31c5.37-5.72,12.62-10.69,17.88-16.38,6.43-6.96,11.11-16.47,17.49-23.62l.37-2.23ZM571.38,580.35c-3.9-4.19-6.95-9.29-11.7-12.65,1.03,4.31,4.23,8.03,6.23,11.65,26.76,48.2,58.33,93.66,86.48,141.12,10,16.86,19.07,34.33,29.17,51.13l2.14-.3c15.83-8.4,29.2-20.05,43.25-30.96v-3.49c-26.36-22.89-50.73-47.93-75.2-72.83-27.01-27.49-54.1-55.4-80.37-83.66ZM393.72,773.98l112.66-202.48-37.66,42.64c-36.11,37.84-69.43,78.07-105.4,116.09-3.95,4.17-8.64,7.55-12.2,12.17,13.42,11.47,26.38,23.97,42.6,31.59ZM451.53,800.57l67.79-227.54-37.42,63.43c-24.54,45.7-51.45,90.31-78.74,134.4-1,1.62-4.5,4.96-4.86,5.8-.53,1.26.5,1.03.96,1.3,14,8.14,29.1,15.75,44.5,20.97,2.49.84,5.05,2.06,7.76,1.64ZM505.63,812.04c-.35-.92-.75-1.63-.8-2.68-.58-13.3,2.06-27.73,3.07-41.08,3.87-50.96,8.46-101.43,15.31-152.15,1.73-12.8,4.2-25.59,5.25-38.52l-5.86,16.58c-17.72,62.27-36.47,124.49-58.04,185.54-2.14,6.05-7.73,16.26-8.38,22.1-.19,1.67.19.81,1.05,1.16,5.31,2.13,13.6,4.08,19.29,5.07,2.49.43,4.98-.12,7.33.28,7.25,1.24,14.38,3.76,21.78,3.71ZM625.14,798.35c18.35-4.23,35.54-12.51,50.98-23.22-34.89-56.02-73.06-109.79-106.56-166.7l-16.73-30.83,72.31,220.75ZM562.72,812.05c-2.08-17.54-6.59-34.78-9.05-52.24-7.76-55.09-12.05-110.54-16.85-165.84l-1.51-6.47c-.15,2.38.2,4.84-.02,7.22-4.69,50.71-9.49,99.55-15.87,150.07-2.83,22.44-4.91,44.94-8.48,67.26h51.77ZM619.81,800.62c-9.94-29.47-23.02-57.83-33.51-87.13-7.01-19.59-12.78-39.66-19.98-59.19l-20.34-66.04,22.07,223.03c17.55-2.02,35.02-4.99,51.76-10.67Z"></path>
      </svg>
    </svg>
  </g>
</svg>

